<?xml version="1.0" encoding="UTF-8"?>
<!DOCTYPE svg PUBLIC "-//W3C//DTD SVG 1.1//EN" "http://www.w3.org/Graphics/SVG/1.1/DTD/svg11.dtd">
<svg xmlns="http://www.w3.org/2000/svg" version="1.1" width="274px" height="300px" style="shape-rendering:geometricPrecision; text-rendering:geometricPrecision; image-rendering:optimizeQuality; fill-rule:evenodd; clip-rule:evenodd" xmlns:xlink="http://www.w3.org/1999/xlink">
<g><path style="opacity:0.31" fill="#e1efee" d="M 161.5,4.5 C 159.784,4.37133 158.117,4.038 156.5,3.5C 154.833,3.5 153.167,3.5 151.5,3.5C 150.5,3.5 149.5,3.5 148.5,3.5C 144.584,5.41346 141.251,8.08013 138.5,11.5C 143.842,1.58065 151.509,-0.752679 161.5,4.5 Z"/></g>
<g><path style="opacity:0.998" fill="#2e8889" d="M 148.5,3.5 C 149.5,3.5 150.5,3.5 151.5,3.5C 151.5,34.5 151.5,65.5 151.5,96.5C 150.871,99.3973 149.871,102.064 148.5,104.5C 148.5,70.8333 148.5,37.1667 148.5,3.5 Z"/></g>
<g><path style="opacity:0.998" fill="#3a8490" d="M 151.5,3.5 C 153.167,3.5 154.833,3.5 156.5,3.5C 156.5,28.1667 156.5,52.8333 156.5,77.5C 156.5,78.5 156.5,79.5 156.5,80.5C 155.204,86.0501 153.537,91.3834 151.5,96.5C 151.5,65.5 151.5,34.5 151.5,3.5 Z"/></g>
<g><path style="opacity:1" fill="#2b9187" d="M 148.5,3.5 C 148.5,37.1667 148.5,70.8333 148.5,104.5C 147.402,109.795 145.735,114.795 143.5,119.5C 143.774,100.655 143.441,81.6549 142.5,62.5C 141.817,62.8627 141.15,63.1961 140.5,63.5C 141.406,59.0986 143.072,55.0986 145.5,51.5C 146.665,50.5039 147.332,49.1705 147.5,47.5C 147.095,44.4952 146.095,41.8285 144.5,39.5C 144.829,36.7718 144.163,34.4385 142.5,32.5C 141.525,29.9333 140.858,27.2666 140.5,24.5C 140.741,22.1016 140.074,20.1016 138.5,18.5C 137.167,16.1667 137.167,13.8333 138.5,11.5C 141.251,8.08013 144.584,5.41346 148.5,3.5 Z"/></g>
<g><path style="opacity:1" fill="#437b94" d="M 156.5,3.5 C 158.117,4.038 159.784,4.37133 161.5,4.5C 163.404,4.73758 164.738,5.73758 165.5,7.5C 164.504,7.58577 163.671,7.25244 163,6.5C 162.667,7.16667 162.333,7.83333 162,8.5C 161.254,33.0489 161.42,57.3822 162.5,81.5C 161.833,80.8333 161.167,80.1667 160.5,79.5C 160.5,78.8333 160.5,78.1667 160.5,77.5C 160.5,76.5 160.5,75.5 160.5,74.5C 159.5,74.5 158.5,74.5 157.5,74.5C 157.737,75.791 157.404,76.791 156.5,77.5C 156.5,52.8333 156.5,28.1667 156.5,3.5 Z"/></g>
<g><path style="opacity:0.999" fill="#53789c" d="M 165.5,7.5 C 167.902,14.3743 169.902,21.3743 171.5,28.5C 170.833,27.5 170.167,26.5 169.5,25.5C 168.925,23.7975 168.092,22.1309 167,20.5C 166.5,47.1646 166.333,73.8313 166.5,100.5C 164.926,97.0935 163.926,93.4268 163.5,89.5C 163.167,86.8333 162.833,84.1667 162.5,81.5C 161.42,57.3822 161.254,33.0489 162,8.5C 162.333,7.83333 162.667,7.16667 163,6.5C 163.671,7.25244 164.504,7.58577 165.5,7.5 Z"/></g>
<g><path style="opacity:0.451" fill="#c1e3dd" d="M 138.5,18.5 C 140.074,20.1016 140.741,22.1016 140.5,24.5C 139.262,22.7857 138.595,20.7857 138.5,18.5 Z"/></g>
<g><path style="opacity:0.997" fill="#59729f" d="M 169.5,25.5 C 169.5,53.5 169.5,81.5 169.5,109.5C 169.167,109.5 168.833,109.5 168.5,109.5C 167.087,106.781 166.42,103.781 166.5,100.5C 166.333,73.8313 166.5,47.1646 167,20.5C 168.092,22.1309 168.925,23.7975 169.5,25.5 Z"/></g>
<g><path style="opacity:0.998" fill="#616ca3" d="M 169.5,25.5 C 170.167,26.5 170.833,27.5 171.5,28.5C 173.669,34.3411 175.669,40.3411 177.5,46.5C 176.034,45.653 175.2,44.3197 175,42.5C 174.817,70.8754 174.317,99.2088 173.5,127.5C 172.055,124.063 171.055,120.397 170.5,116.5C 170.552,114.097 170.219,111.764 169.5,109.5C 169.5,81.5 169.5,53.5 169.5,25.5 Z"/></g>
<g><path style="opacity:0.463" fill="#b2d9d3" d="M 142.5,32.5 C 144.163,34.4385 144.829,36.7718 144.5,39.5C 143.388,37.4006 142.721,35.0673 142.5,32.5 Z"/></g>
<g><path style="opacity:0.624" fill="#c4e0df" d="M 144.5,39.5 C 146.095,41.8285 147.095,44.4952 147.5,47.5C 147.332,49.1705 146.665,50.5039 145.5,51.5C 145.421,50.0695 145.754,48.7362 146.5,47.5C 145.518,44.9044 144.851,42.2377 144.5,39.5 Z"/></g>
<g><path style="opacity:0.997" fill="#6a65a7" d="M 177.5,46.5 C 177.833,48.5 178.167,50.5 178.5,52.5C 177.502,82.3287 177.169,112.329 177.5,142.5C 176.596,141.791 176.263,140.791 176.5,139.5C 176.41,135.786 175.41,132.452 173.5,129.5C 173.5,128.833 173.5,128.167 173.5,127.5C 174.317,99.2088 174.817,70.8754 175,42.5C 175.2,44.3197 176.034,45.653 177.5,46.5 Z"/></g>
<g><path style="opacity:0.997" fill="#249682" d="M 143.5,119.5 C 142.922,124.165 141.589,128.499 139.5,132.5C 139.667,111.831 139.5,91.164 139,70.5C 138.617,71.056 138.117,71.3893 137.5,71.5C 138.129,68.6027 139.129,65.936 140.5,63.5C 141.15,63.1961 141.817,62.8627 142.5,62.5C 143.441,81.6549 143.774,100.655 143.5,119.5 Z"/></g>
<g><path style="opacity:0.997" fill="#7560ac" d="M 178.5,52.5 C 181.146,57.7815 182.813,63.4482 183.5,69.5C 182.192,101.354 182.192,133.354 183.5,165.5C 182.262,163.786 181.595,161.786 181.5,159.5C 181.706,156.505 181.04,153.838 179.5,151.5C 179.706,148.505 179.04,145.838 177.5,143.5C 177.5,143.167 177.5,142.833 177.5,142.5C 177.169,112.329 177.502,82.3287 178.5,52.5 Z"/></g>
<g><path style="opacity:0.999" fill="#7f5fb1" d="M 183.5,69.5 C 185.538,73.9399 187.204,78.6066 188.5,83.5C 187.15,82.5169 186.15,81.1836 185.5,79.5C 185.167,79.6667 184.833,79.8333 184.5,80C 184.294,110.729 184.627,142.229 185.5,174.5C 184.343,171.727 183.676,168.727 183.5,165.5C 182.192,133.354 182.192,101.354 183.5,69.5 Z"/></g>
<g><path style="opacity:0.996" fill="#219d7e" d="M 139.5,132.5 C 138.204,138.05 136.537,143.383 134.5,148.5C 134.667,127.164 134.5,105.831 134,84.5C 133.764,86.1193 132.931,87.1193 131.5,87.5C 133.305,82.0842 135.305,76.7509 137.5,71.5C 138.117,71.3893 138.617,71.056 139,70.5C 139.5,91.164 139.667,111.831 139.5,132.5 Z"/></g>
<g><path style="opacity:0.085" fill="#dde7ec" d="M 160.5,77.5 C 158.57,77.7706 157.236,78.7706 156.5,80.5C 156.5,79.5 156.5,78.5 156.5,77.5C 157.404,76.791 157.737,75.791 157.5,74.5C 158.5,74.5 159.5,74.5 160.5,74.5C 160.5,75.5 160.5,76.5 160.5,77.5 Z"/></g>
<g><path style="opacity:0.997" fill="#8557b4" d="M 188.5,83.5 C 189.834,88.5007 191.167,93.5007 192.5,98.5C 192.41,101.152 193.076,103.485 194.5,105.5C 195.87,108.619 196.87,111.952 197.5,115.5C 197.12,117.698 197.787,119.365 199.5,120.5C 202.326,130.141 204.993,139.808 207.5,149.5C 207.345,152.716 208.345,155.383 210.5,157.5C 211.301,159.042 211.634,160.708 211.5,162.5C 211.41,165.152 212.076,167.485 213.5,169.5C 214.404,170.209 214.737,171.209 214.5,172.5C 214.12,174.698 214.787,176.365 216.5,177.5C 217.038,179.117 217.371,180.784 217.5,182.5C 217.414,183.496 217.748,184.329 218.5,185C 233.877,185.198 249.211,185.698 264.5,186.5C 268.171,189.249 269.337,192.916 268,197.5C 267.722,198.416 267.222,199.082 266.5,199.5C 252.323,199.171 238.323,199.504 224.5,200.5C 223.167,201.5 223.167,202.5 224.5,203.5C 230.376,222.504 235.71,241.671 240.5,261C 239.704,271.985 234.038,276.818 223.5,275.5C 221.898,273.926 219.898,273.259 217.5,273.5C 215.112,272.781 213.612,271.115 213,268.5C 210.189,259.904 207.689,251.237 205.5,242.5C 205.59,239.848 204.924,237.515 203.5,235.5C 199.797,224.715 196.464,213.715 193.5,202.5C 193.5,201.167 192.833,200.5 191.5,200.5C 189.735,199.539 187.735,199.205 185.5,199.5C 185.167,194.833 184.833,190.167 184.5,185.5C 186.103,185.688 187.437,185.188 188.5,184C 187.901,182.378 187.234,180.878 186.5,179.5C 185.699,177.958 185.366,176.292 185.5,174.5C 184.627,142.229 184.294,110.729 184.5,80C 184.833,79.8333 185.167,79.6667 185.5,79.5C 186.15,81.1836 187.15,82.5169 188.5,83.5 Z"/></g>
<g><path style="opacity:0.502" fill="#c3d2dd" d="M 160.5,79.5 C 161.167,80.1667 161.833,80.8333 162.5,81.5C 162.833,84.1667 163.167,86.8333 163.5,89.5C 161.899,86.4498 160.899,83.1165 160.5,79.5 Z"/></g>
<g><path style="opacity:0.997" fill="#1ca379" d="M 134.5,148.5 C 133.068,153.67 131.401,158.67 129.5,163.5C 129.833,142.168 130.166,121.001 130.5,100C 129.648,98.2716 128.648,98.105 127.5,99.5C 128.833,95.5 130.167,91.5 131.5,87.5C 132.931,87.1193 133.764,86.1193 134,84.5C 134.5,105.831 134.667,127.164 134.5,148.5 Z"/></g>
<g><path style="opacity:0.998" fill="#1ea974" d="M 129.5,163.5 C 129.074,167.902 127.74,171.902 125.5,175.5C 125.667,153.497 125.5,131.497 125,109.5C 124.617,110.056 124.117,110.389 123.5,110.5C 124.441,106.675 125.774,103.009 127.5,99.5C 128.648,98.105 129.648,98.2716 130.5,100C 130.166,121.001 129.833,142.168 129.5,163.5 Z"/></g>
<g><path style="opacity:0.525" fill="#bfa6d8" d="M 192.5,98.5 C 193.924,100.515 194.59,102.848 194.5,105.5C 193.076,103.485 192.41,101.152 192.5,98.5 Z"/></g>
<g><path style="opacity:0.608" fill="#b1bad3" d="M 168.5,109.5 C 168.833,109.5 169.167,109.5 169.5,109.5C 170.219,111.764 170.552,114.097 170.5,116.5C 169.388,114.401 168.721,112.067 168.5,109.5 Z"/></g>
<g><path style="opacity:0.997" fill="#14ac6d" d="M 125.5,175.5 C 125.371,177.216 125.038,178.883 124.5,180.5C 123.751,181.531 123.085,182.698 122.5,184C 124.937,185.375 127.603,185.875 130.5,185.5C 129.272,189.675 129.272,193.842 130.5,198C 127.381,199.405 124.048,199.905 120.5,199.5C 120.358,174.208 120.691,149.041 121.5,124C 120.423,123.53 119.423,123.697 118.5,124.5C 119.774,119.677 121.441,115.01 123.5,110.5C 124.117,110.389 124.617,110.056 125,109.5C 125.5,131.497 125.667,153.497 125.5,175.5 Z"/></g>
<g><path style="opacity:0.604" fill="#c0a6d8" d="M 197.5,115.5 C 198.537,116.93 199.204,118.597 199.5,120.5C 197.787,119.365 197.12,117.698 197.5,115.5 Z"/></g>
<g><path style="opacity:0.995" fill="#1bb568" d="M 120.5,199.5 C 119.209,199.263 118.209,199.596 117.5,200.5C 116.662,200.842 116.328,201.508 116.5,202.5C 112.007,214.822 107.507,227.155 103,239.5C 97.1057,256.133 87.6057,270.3 74.5,282C 55.3708,294.734 35.7042,295.734 15.5,285C 6.61727,276.874 2.28394,266.707 2.5,254.5C 2.97127,239.06 8.3046,225.726 18.5,214.5C 20.5,213.167 22.1667,211.5 23.5,209.5C 23.8333,208.5 24.5,207.833 25.5,207.5C 27.7488,206.92 29.4154,205.587 30.5,203.5C 33.678,200.742 37.3447,198.742 41.5,197.5C 42.4959,197.414 43.3292,197.748 44,198.5C 46.9599,196.61 49.7933,194.61 52.5,192.5C 54.7014,191.434 57.0347,190.767 59.5,190.5C 62.1522,190.59 64.4855,189.924 66.5,188.5C 69.5885,187.215 72.9219,186.549 76.5,186.5C 83.5071,186.166 90.5071,185.666 97.5,185C 98.2524,184.329 98.5858,183.496 98.5,182.5C 99.7681,177.03 101.435,171.696 103.5,166.5C 105.213,165.365 105.88,163.698 105.5,161.5C 105.971,159.421 106.637,157.421 107.5,155.5C 109.834,153.824 110.834,151.491 110.5,148.5C 112.074,146.898 112.741,144.898 112.5,142.5C 113.937,136.297 115.937,130.297 118.5,124.5C 119.423,123.697 120.423,123.53 121.5,124C 120.691,149.041 120.358,174.208 120.5,199.5 Z M 85.5,201.5 C 86.5,201.5 87.5,201.5 88.5,201.5C 89.2341,202.708 89.5674,204.041 89.5,205.5C 87.9651,209.438 86.6318,213.438 85.5,217.5C 84.0687,218.78 83.4021,220.447 83.5,222.5C 83.5,222.833 83.5,223.167 83.5,223.5C 82.0687,224.78 81.4021,226.447 81.5,228.5C 81.5,228.833 81.5,229.167 81.5,229.5C 79.6001,232.518 78.2667,235.851 77.5,239.5C 74.3187,248.863 69.8187,257.53 64,265.5C 56.9075,275.299 47.4075,279.466 35.5,278C 24.9589,274.765 19.9589,267.598 20.5,256.5C 21.7236,232.623 33.3903,216.29 55.5,207.5C 57.7857,207.405 59.7857,206.738 61.5,205.5C 69.5671,203.749 77.5671,202.415 85.5,201.5 Z"/></g>
<g><path style="opacity:0.514" fill="#c9c8df" d="M 173.5,129.5 C 175.41,132.452 176.41,135.786 176.5,139.5C 174.899,136.45 173.899,133.116 173.5,129.5 Z"/></g>
<g><path style="opacity:0.349" fill="#c6c1de" d="M 177.5,143.5 C 179.04,145.838 179.706,148.505 179.5,151.5C 178.232,149.095 177.565,146.428 177.5,143.5 Z"/></g>
<g><path style="opacity:0.769" fill="#86d7ab" d="M 112.5,142.5 C 112.741,144.898 112.074,146.898 110.5,148.5C 110.259,146.102 110.926,144.102 112.5,142.5 Z"/></g>
<g><path style="opacity:0.796" fill="#83d6a8" d="M 110.5,148.5 C 110.834,151.491 109.834,153.824 107.5,155.5C 107.935,152.843 108.935,150.509 110.5,148.5 Z"/></g>
<g><path style="opacity:0.729" fill="#b495d0" d="M 207.5,149.5 C 208.871,151.936 209.871,154.603 210.5,157.5C 208.345,155.383 207.345,152.716 207.5,149.5 Z"/></g>
<g><path style="opacity:0.118" fill="#dad4e9" d="M 179.5,151.5 C 181.04,153.838 181.706,156.505 181.5,159.5C 180.232,157.095 179.565,154.428 179.5,151.5 Z"/></g>
<g><path style="opacity:0.651" fill="#a9e5c7" d="M 105.5,161.5 C 105.88,163.698 105.213,165.365 103.5,166.5C 103.796,164.597 104.463,162.93 105.5,161.5 Z"/></g>
<g><path style="opacity:0.545" fill="#b496d1" d="M 211.5,162.5 C 212.924,164.515 213.59,166.848 213.5,169.5C 212.076,167.485 211.41,165.152 211.5,162.5 Z"/></g>
<g><path style="opacity:0.651" fill="#c2a8d9" d="M 214.5,172.5 C 215.537,173.93 216.204,175.597 216.5,177.5C 214.787,176.365 214.12,174.698 214.5,172.5 Z"/></g>
<g><path style="opacity:0.62" fill="#9de1c1" d="M 98.5,182.5 C 98.5858,183.496 98.2524,184.329 97.5,185C 90.5071,185.666 83.5071,186.166 76.5,186.5C 82.9537,185.123 89.6204,184.29 96.5,184C 97.0442,183.283 97.7109,182.783 98.5,182.5 Z"/></g>
<g><path style="opacity:0.408" fill="#9bd5c7" d="M 124.5,180.5 C 124.33,181.822 124.663,182.989 125.5,184C 133.159,184.5 140.826,184.666 148.5,184.5C 148.5,184.833 148.5,185.167 148.5,185.5C 146.833,185.5 145.167,185.5 143.5,185.5C 140.5,185.5 137.5,185.5 134.5,185.5C 133.167,185.5 131.833,185.5 130.5,185.5C 127.603,185.875 124.937,185.375 122.5,184C 123.085,182.698 123.751,181.531 124.5,180.5 Z"/></g>
<g><path style="opacity:0.429" fill="#c1c4da" d="M 186.5,179.5 C 187.234,180.878 187.901,182.378 188.5,184C 187.437,185.188 186.103,185.688 184.5,185.5C 182.167,185.5 179.833,185.5 177.5,185.5C 174.833,185.5 172.167,185.5 169.5,185.5C 167.5,185.5 165.5,185.5 163.5,185.5C 161.833,185.5 160.167,185.5 158.5,185.5C 156.833,185.5 155.167,185.5 153.5,185.5C 151.833,185.5 150.167,185.5 148.5,185.5C 148.5,185.167 148.5,184.833 148.5,184.5C 160.505,184.667 172.505,184.5 184.5,184C 186.107,182.951 186.773,181.451 186.5,179.5 Z"/></g>
<g><path style="opacity:0.522" fill="#c7b2dd" d="M 217.5,182.5 C 218.473,182.987 219.473,183.487 220.5,184C 225.667,184.167 230.833,184.333 236,184.5C 244.193,184.328 251.86,183.994 259,183.5C 261.209,183.989 263.042,184.989 264.5,186.5C 249.211,185.698 233.877,185.198 218.5,185C 217.748,184.329 217.414,183.496 217.5,182.5 Z"/></g>
<g><path style="opacity:1" fill="#16a479" d="M 130.5,185.5 C 131.833,185.5 133.167,185.5 134.5,185.5C 135.026,190.807 134.36,195.807 132.5,200.5C 128.167,200.5 123.833,200.5 119.5,200.5C 118.833,200.5 118.167,200.5 117.5,200.5C 118.209,199.596 119.209,199.263 120.5,199.5C 124.048,199.905 127.381,199.405 130.5,198C 129.272,193.842 129.272,189.675 130.5,185.5 Z"/></g>
<g><path style="opacity:0.998" fill="#1f9781" d="M 134.5,185.5 C 137.5,185.5 140.5,185.5 143.5,185.5C 143.181,190.363 143.514,195.03 144.5,199.5C 144.5,199.833 144.5,200.167 144.5,200.5C 140.5,200.5 136.5,200.5 132.5,200.5C 134.36,195.807 135.026,190.807 134.5,185.5 Z"/></g>
<g><path style="opacity:0.99" fill="#208b83" d="M 143.5,185.5 C 145.167,185.5 146.833,185.5 148.5,185.5C 148.5,190.167 148.5,194.833 148.5,199.5C 147.167,199.5 145.833,199.5 144.5,199.5C 143.514,195.03 143.181,190.363 143.5,185.5 Z"/></g>
<g><path style="opacity:0.989" fill="#398a8f" d="M 148.5,185.5 C 150.167,185.5 151.833,185.5 153.5,185.5C 153.5,190.167 153.5,194.833 153.5,199.5C 155.167,199.5 156.833,199.5 158.5,199.5C 158.5,199.833 158.5,200.167 158.5,200.5C 153.833,200.5 149.167,200.5 144.5,200.5C 144.5,200.167 144.5,199.833 144.5,199.5C 145.833,199.5 147.167,199.5 148.5,199.5C 148.5,194.833 148.5,190.167 148.5,185.5 Z"/></g>
<g><path style="opacity:0.992" fill="#397d90" d="M 153.5,185.5 C 155.167,185.5 156.833,185.5 158.5,185.5C 159.5,190.335 159.5,195.002 158.5,199.5C 156.833,199.5 155.167,199.5 153.5,199.5C 153.5,194.833 153.5,190.167 153.5,185.5 Z"/></g>
<g><path style="opacity:0.992" fill="#4f7b9a" d="M 158.5,185.5 C 160.167,185.5 161.833,185.5 163.5,185.5C 163.429,189.887 163.596,194.22 164,198.5C 165.699,199.406 167.533,199.739 169.5,199.5C 170.167,199.5 170.5,199.833 170.5,200.5C 166.5,200.5 162.5,200.5 158.5,200.5C 158.5,200.167 158.5,199.833 158.5,199.5C 159.5,195.002 159.5,190.335 158.5,185.5 Z"/></g>
<g><path style="opacity:0.996" fill="#526f9b" d="M 163.5,185.5 C 165.5,185.5 167.5,185.5 169.5,185.5C 169.5,190.167 169.5,194.833 169.5,199.5C 167.533,199.739 165.699,199.406 164,198.5C 163.596,194.22 163.429,189.887 163.5,185.5 Z"/></g>
<g><path style="opacity:0.999" fill="#6e6aa9" d="M 169.5,185.5 C 172.167,185.5 174.833,185.5 177.5,185.5C 177.5,190.167 177.5,194.833 177.5,199.5C 180.167,199.5 182.833,199.5 185.5,199.5C 187.735,199.205 189.735,199.539 191.5,200.5C 184.5,200.5 177.5,200.5 170.5,200.5C 170.5,199.833 170.167,199.5 169.5,199.5C 169.5,194.833 169.5,190.167 169.5,185.5 Z"/></g>
<g><path style="opacity:0.999" fill="#735cab" d="M 177.5,185.5 C 179.833,185.5 182.167,185.5 184.5,185.5C 184.833,190.167 185.167,194.833 185.5,199.5C 182.833,199.5 180.167,199.5 177.5,199.5C 177.5,194.833 177.5,190.167 177.5,185.5 Z"/></g>
<g><path style="opacity:0.643" fill="#7cd6aa" d="M 66.5,188.5 C 64.4855,189.924 62.1522,190.59 59.5,190.5C 61.5145,189.076 63.8478,188.41 66.5,188.5 Z"/></g>
<g><path style="opacity:0.965" fill="#6dcf99" d="M 52.5,192.5 C 49.7933,194.61 46.9599,196.61 44,198.5C 43.3292,197.748 42.4959,197.414 41.5,197.5C 44.7403,195.049 48.4069,193.382 52.5,192.5 Z"/></g>
<g><path style="opacity:0.628" fill="#b79cd3" d="M 224.5,200.5 C 238.323,199.504 252.323,199.171 266.5,199.5C 262.769,200.196 258.935,200.862 255,201.5C 246.815,201.578 238.648,201.245 230.5,200.5C 228.5,200.5 226.5,200.5 224.5,200.5 Z"/></g>
<g><path style="opacity:0.62" fill="#82d9b2" d="M 81.5,201.5 C 84.6248,200.521 87.9581,200.187 91.5,200.5C 91.7373,201.791 91.404,202.791 90.5,203.5C 90.5,202.167 89.8333,201.5 88.5,201.5C 87.5,201.5 86.5,201.5 85.5,201.5C 84.1667,201.5 82.8333,201.5 81.5,201.5 Z"/></g>
<g><path style="opacity:0.239" fill="#dff5ec" d="M 117.5,200.5 C 118.167,200.5 118.833,200.5 119.5,200.5C 118.71,201.401 117.71,202.068 116.5,202.5C 116.328,201.508 116.662,200.842 117.5,200.5 Z"/></g>
<g><path style="opacity:0.525" fill="#ddcee8" d="M 191.5,200.5 C 192.833,200.5 193.5,201.167 193.5,202.5C 192.5,202.167 191.833,201.5 191.5,200.5 Z"/></g>
<g><path style="opacity:0.129" fill="#f4eff8" d="M 224.5,200.5 C 226.5,200.5 228.5,200.5 230.5,200.5C 228.249,201.015 226.249,202.015 224.5,203.5C 223.167,202.5 223.167,201.5 224.5,200.5 Z"/></g>
<g><path style="opacity:0.159" fill="#fafdfc" d="M 88.5,201.5 C 89.8333,201.5 90.5,202.167 90.5,203.5C 90.6716,204.492 90.3382,205.158 89.5,205.5C 89.5674,204.041 89.2341,202.708 88.5,201.5 Z"/></g>
<g><path style="opacity:0.156" fill="#d9f4e7" d="M 81.5,201.5 C 82.8333,201.5 84.1667,201.5 85.5,201.5C 77.5671,202.415 69.5671,203.749 61.5,205.5C 67.6724,202.347 74.3391,201.014 81.5,201.5 Z"/></g>
<g><path style="opacity:0.682" fill="#89d9b0" d="M 30.5,203.5 C 29.4154,205.587 27.7488,206.92 25.5,207.5C 26.5846,205.413 28.2512,204.08 30.5,203.5 Z"/></g>
<g><path style="opacity:0.196" fill="#d8f3e6" d="M 61.5,205.5 C 59.7857,206.738 57.7857,207.405 55.5,207.5C 57.1016,205.926 59.1016,205.259 61.5,205.5 Z"/></g>
<g><path style="opacity:0.459" fill="#abe5c9" d="M 23.5,209.5 C 22.1667,211.5 20.5,213.167 18.5,214.5C 19.1667,211.833 20.8333,210.167 23.5,209.5 Z"/></g>
<g><path style="opacity:0.749" fill="#aee5c7" d="M 85.5,217.5 C 85.8799,219.698 85.2132,221.365 83.5,222.5C 83.4021,220.447 84.0687,218.78 85.5,217.5 Z"/></g>
<g><path style="opacity:0.718" fill="#a9e3c4" d="M 83.5,223.5 C 83.8799,225.698 83.2132,227.365 81.5,228.5C 81.4021,226.447 82.0687,224.78 83.5,223.5 Z"/></g>
<g><path style="opacity:0.773" fill="#9fe0be" d="M 81.5,229.5 C 81.2299,233.358 79.8966,236.691 77.5,239.5C 78.2667,235.851 79.6001,232.518 81.5,229.5 Z"/></g>
<g><path style="opacity:0.016" fill="#e8def1" d="M 203.5,235.5 C 204.924,237.515 205.59,239.848 205.5,242.5C 204.076,240.485 203.41,238.152 203.5,235.5 Z"/></g>
<g><path style="opacity:0.522" fill="#af8fce" d="M 217.5,273.5 C 219.898,273.259 221.898,273.926 223.5,275.5C 221.102,275.741 219.102,275.074 217.5,273.5 Z"/></g>
</svg>
